<mxfile host="app.diagrams.net" agent="Mozilla/5.0 (X11; Linux x86_64; rv:132.0) Gecko/20100101 Firefox/132.0" version="24.9.1">
  <diagram name="Strona-1" id="anAFnxs6NAeEIsrkDHFQ">
    <mxGraphModel dx="1490" dy="1566" grid="1" gridSize="10" guides="1" tooltips="1" connect="1" arrows="1" fold="1" page="1" pageScale="1" pageWidth="2339" pageHeight="3300" math="0" shadow="0">
      <root>
        <mxCell id="0" />
        <mxCell id="1" parent="0" />
        <mxCell id="Ig3IrDDyf_KYGwmNzcXG-1" value="Report" style="swimlane;fontStyle=0;childLayout=stackLayout;horizontal=1;startSize=30;horizontalStack=0;resizeParent=1;resizeParentMax=0;resizeLast=0;collapsible=1;marginBottom=0;align=center;fontSize=14;" vertex="1" parent="1">
          <mxGeometry x="840" y="330" width="420" height="604" as="geometry">
            <mxRectangle x="210" y="190" width="80" height="30" as="alternateBounds" />
          </mxGeometry>
        </mxCell>
        <mxCell id="Ig3IrDDyf_KYGwmNzcXG-95" value="id: string" style="text;strokeColor=none;fillColor=none;spacingLeft=4;spacingRight=4;overflow=hidden;rotatable=0;points=[[0,0.5],[1,0.5]];portConstraint=eastwest;fontSize=12;whiteSpace=wrap;html=1;" vertex="1" parent="Ig3IrDDyf_KYGwmNzcXG-1">
          <mxGeometry y="30" width="420" height="30" as="geometry" />
        </mxCell>
        <mxCell id="Ig3IrDDyf_KYGwmNzcXG-2" value="correlationId: string" style="text;strokeColor=none;fillColor=none;spacingLeft=4;spacingRight=4;overflow=hidden;rotatable=0;points=[[0,0.5],[1,0.5]];portConstraint=eastwest;fontSize=12;whiteSpace=wrap;html=1;" vertex="1" parent="Ig3IrDDyf_KYGwmNzcXG-1">
          <mxGeometry y="60" width="420" height="30" as="geometry" />
        </mxCell>
        <mxCell id="Ig3IrDDyf_KYGwmNzcXG-3" value="status: string" style="text;strokeColor=none;fillColor=none;spacingLeft=4;spacingRight=4;overflow=hidden;rotatable=0;points=[[0,0.5],[1,0.5]];portConstraint=eastwest;fontSize=12;whiteSpace=wrap;html=1;" vertex="1" parent="Ig3IrDDyf_KYGwmNzcXG-1">
          <mxGeometry y="90" width="420" height="30" as="geometry" />
        </mxCell>
        <mxCell id="Ig3IrDDyf_KYGwmNzcXG-4" value="sinceMs: number" style="text;strokeColor=none;fillColor=none;spacingLeft=4;spacingRight=4;overflow=hidden;rotatable=0;points=[[0,0.5],[1,0.5]];portConstraint=eastwest;fontSize=12;whiteSpace=wrap;html=1;" vertex="1" parent="Ig3IrDDyf_KYGwmNzcXG-1">
          <mxGeometry y="120" width="420" height="34" as="geometry" />
        </mxCell>
        <mxCell id="Ig3IrDDyf_KYGwmNzcXG-11" value="toMs: number" style="text;strokeColor=none;fillColor=none;spacingLeft=4;spacingRight=4;overflow=hidden;rotatable=0;points=[[0,0.5],[1,0.5]];portConstraint=eastwest;fontSize=12;whiteSpace=wrap;html=1;" vertex="1" parent="Ig3IrDDyf_KYGwmNzcXG-1">
          <mxGeometry y="154" width="420" height="30" as="geometry" />
        </mxCell>
        <mxCell id="Ig3IrDDyf_KYGwmNzcXG-12" value="requestedAtMs: number" style="text;strokeColor=none;fillColor=none;spacingLeft=4;spacingRight=4;overflow=hidden;rotatable=0;points=[[0,0.5],[1,0.5]];portConstraint=eastwest;fontSize=12;whiteSpace=wrap;html=1;" vertex="1" parent="Ig3IrDDyf_KYGwmNzcXG-1">
          <mxGeometry y="184" width="420" height="30" as="geometry" />
        </mxCell>
        <mxCell id="Ig3IrDDyf_KYGwmNzcXG-13" value="scheduledGenerationAtMs: number" style="text;strokeColor=none;fillColor=none;spacingLeft=4;spacingRight=4;overflow=hidden;rotatable=0;points=[[0,0.5],[1,0.5]];portConstraint=eastwest;fontSize=12;whiteSpace=wrap;html=1;" vertex="1" parent="Ig3IrDDyf_KYGwmNzcXG-1">
          <mxGeometry y="214" width="420" height="30" as="geometry" />
        </mxCell>
        <mxCell id="Ig3IrDDyf_KYGwmNzcXG-14" value="title: string" style="text;strokeColor=none;fillColor=none;spacingLeft=4;spacingRight=4;overflow=hidden;rotatable=0;points=[[0,0.5],[1,0.5]];portConstraint=eastwest;fontSize=12;whiteSpace=wrap;html=1;" vertex="1" parent="Ig3IrDDyf_KYGwmNzcXG-1">
          <mxGeometry y="244" width="420" height="30" as="geometry" />
        </mxCell>
        <mxCell id="Ig3IrDDyf_KYGwmNzcXG-15" value="nodeReports: NodeReport[]" style="text;strokeColor=none;fillColor=none;spacingLeft=4;spacingRight=4;overflow=hidden;rotatable=0;points=[[0,0.5],[1,0.5]];portConstraint=eastwest;fontSize=12;whiteSpace=wrap;html=1;" vertex="1" parent="Ig3IrDDyf_KYGwmNzcXG-1">
          <mxGeometry y="274" width="420" height="30" as="geometry" />
        </mxCell>
        <mxCell id="Ig3IrDDyf_KYGwmNzcXG-16" value="applicationReports: ApplicationReport[]" style="text;strokeColor=none;fillColor=none;spacingLeft=4;spacingRight=4;overflow=hidden;rotatable=0;points=[[0,0.5],[1,0.5]];portConstraint=eastwest;fontSize=12;whiteSpace=wrap;html=1;" vertex="1" parent="Ig3IrDDyf_KYGwmNzcXG-1">
          <mxGeometry y="304" width="420" height="30" as="geometry" />
        </mxCell>
        <mxCell id="Ig3IrDDyf_KYGwmNzcXG-17" value="totalApplicationEntries: number" style="text;strokeColor=none;fillColor=none;spacingLeft=4;spacingRight=4;overflow=hidden;rotatable=0;points=[[0,0.5],[1,0.5]];portConstraint=eastwest;fontSize=12;whiteSpace=wrap;html=1;" vertex="1" parent="Ig3IrDDyf_KYGwmNzcXG-1">
          <mxGeometry y="334" width="420" height="30" as="geometry" />
        </mxCell>
        <mxCell id="Ig3IrDDyf_KYGwmNzcXG-18" value="totalNodeEntries: number" style="text;strokeColor=none;fillColor=none;spacingLeft=4;spacingRight=4;overflow=hidden;rotatable=0;points=[[0,0.5],[1,0.5]];portConstraint=eastwest;fontSize=12;whiteSpace=wrap;html=1;" vertex="1" parent="Ig3IrDDyf_KYGwmNzcXG-1">
          <mxGeometry y="364" width="420" height="30" as="geometry" />
        </mxCell>
        <mxCell id="Ig3IrDDyf_KYGwmNzcXG-19" value="urgency: string" style="text;strokeColor=none;fillColor=none;spacingLeft=4;spacingRight=4;overflow=hidden;rotatable=0;points=[[0,0.5],[1,0.5]];portConstraint=eastwest;fontSize=12;whiteSpace=wrap;html=1;" vertex="1" parent="Ig3IrDDyf_KYGwmNzcXG-1">
          <mxGeometry y="394" width="420" height="30" as="geometry" />
        </mxCell>
        <mxCell id="Ig3IrDDyf_KYGwmNzcXG-20" value="scheduledApplicationInsights: {}" style="text;strokeColor=none;fillColor=none;spacingLeft=4;spacingRight=4;overflow=hidden;rotatable=0;points=[[0,0.5],[1,0.5]];portConstraint=eastwest;fontSize=12;whiteSpace=wrap;html=1;" vertex="1" parent="Ig3IrDDyf_KYGwmNzcXG-1">
          <mxGeometry y="424" width="420" height="30" as="geometry" />
        </mxCell>
        <mxCell id="Ig3IrDDyf_KYGwmNzcXG-21" value="scheduledNodeInsights: {}" style="text;strokeColor=none;fillColor=none;spacingLeft=4;spacingRight=4;overflow=hidden;rotatable=0;points=[[0,0.5],[1,0.5]];portConstraint=eastwest;fontSize=12;whiteSpace=wrap;html=1;" vertex="1" parent="Ig3IrDDyf_KYGwmNzcXG-1">
          <mxGeometry y="454" width="420" height="30" as="geometry" />
        </mxCell>
        <mxCell id="Ig3IrDDyf_KYGwmNzcXG-22" value="analyzedApplications: number" style="text;strokeColor=none;fillColor=none;spacingLeft=4;spacingRight=4;overflow=hidden;rotatable=0;points=[[0,0.5],[1,0.5]];portConstraint=eastwest;fontSize=12;whiteSpace=wrap;html=1;" vertex="1" parent="Ig3IrDDyf_KYGwmNzcXG-1">
          <mxGeometry y="484" width="420" height="30" as="geometry" />
        </mxCell>
        <mxCell id="Ig3IrDDyf_KYGwmNzcXG-23" value="analyzedNodes: number" style="text;strokeColor=none;fillColor=none;spacingLeft=4;spacingRight=4;overflow=hidden;rotatable=0;points=[[0,0.5],[1,0.5]];portConstraint=eastwest;fontSize=12;whiteSpace=wrap;html=1;" vertex="1" parent="Ig3IrDDyf_KYGwmNzcXG-1">
          <mxGeometry y="514" width="420" height="30" as="geometry" />
        </mxCell>
        <mxCell id="Ig3IrDDyf_KYGwmNzcXG-24" value="scheduledApplicationIncidentMergerJobIds: ScheduledIncidentMergerJob[]" style="text;strokeColor=none;fillColor=none;spacingLeft=4;spacingRight=4;overflow=hidden;rotatable=0;points=[[0,0.5],[1,0.5]];portConstraint=eastwest;fontSize=12;whiteSpace=wrap;html=1;" vertex="1" parent="Ig3IrDDyf_KYGwmNzcXG-1">
          <mxGeometry y="544" width="420" height="30" as="geometry" />
        </mxCell>
        <mxCell id="Ig3IrDDyf_KYGwmNzcXG-25" value="scheduledNodeIncidentMergerJobIds: ScheduledIncidentMergerJob[]" style="text;strokeColor=none;fillColor=none;spacingLeft=4;spacingRight=4;overflow=hidden;rotatable=0;points=[[0,0.5],[1,0.5]];portConstraint=eastwest;fontSize=12;whiteSpace=wrap;html=1;" vertex="1" parent="Ig3IrDDyf_KYGwmNzcXG-1">
          <mxGeometry y="574" width="420" height="30" as="geometry" />
        </mxCell>
        <mxCell id="Ig3IrDDyf_KYGwmNzcXG-5" value="NodeReport" style="swimlane;fontStyle=0;childLayout=stackLayout;horizontal=1;startSize=26;horizontalStack=0;resizeParent=1;resizeParentMax=0;resizeLast=0;collapsible=1;marginBottom=0;align=center;fontSize=14;" vertex="1" parent="1">
          <mxGeometry x="1470" y="640" width="160" height="146" as="geometry" />
        </mxCell>
        <mxCell id="Ig3IrDDyf_KYGwmNzcXG-6" value="node: string" style="text;strokeColor=none;fillColor=none;spacingLeft=4;spacingRight=4;overflow=hidden;rotatable=0;points=[[0,0.5],[1,0.5]];portConstraint=eastwest;fontSize=12;whiteSpace=wrap;html=1;" vertex="1" parent="Ig3IrDDyf_KYGwmNzcXG-5">
          <mxGeometry y="26" width="160" height="30" as="geometry" />
        </mxCell>
        <mxCell id="Ig3IrDDyf_KYGwmNzcXG-7" value="accuracy: string" style="text;strokeColor=none;fillColor=none;spacingLeft=4;spacingRight=4;overflow=hidden;rotatable=0;points=[[0,0.5],[1,0.5]];portConstraint=eastwest;fontSize=12;whiteSpace=wrap;html=1;" vertex="1" parent="Ig3IrDDyf_KYGwmNzcXG-5">
          <mxGeometry y="56" width="160" height="30" as="geometry" />
        </mxCell>
        <mxCell id="Ig3IrDDyf_KYGwmNzcXG-8" value="customPrompt: string" style="text;strokeColor=none;fillColor=none;spacingLeft=4;spacingRight=4;overflow=hidden;rotatable=0;points=[[0,0.5],[1,0.5]];portConstraint=eastwest;fontSize=12;whiteSpace=wrap;html=1;" vertex="1" parent="Ig3IrDDyf_KYGwmNzcXG-5">
          <mxGeometry y="86" width="160" height="30" as="geometry" />
        </mxCell>
        <mxCell id="Ig3IrDDyf_KYGwmNzcXG-30" value="incidents: NodeIncident[]" style="text;strokeColor=none;fillColor=none;spacingLeft=4;spacingRight=4;overflow=hidden;rotatable=0;points=[[0,0.5],[1,0.5]];portConstraint=eastwest;fontSize=12;whiteSpace=wrap;html=1;" vertex="1" parent="Ig3IrDDyf_KYGwmNzcXG-5">
          <mxGeometry y="116" width="160" height="30" as="geometry" />
        </mxCell>
        <mxCell id="Ig3IrDDyf_KYGwmNzcXG-31" value="ApplicationReport" style="swimlane;fontStyle=0;childLayout=stackLayout;horizontal=1;startSize=26;horizontalStack=0;resizeParent=1;resizeParentMax=0;resizeLast=0;collapsible=1;marginBottom=0;align=center;fontSize=14;" vertex="1" parent="1">
          <mxGeometry x="550" y="640" width="220" height="146" as="geometry" />
        </mxCell>
        <mxCell id="Ig3IrDDyf_KYGwmNzcXG-32" value="applicationName: string" style="text;strokeColor=none;fillColor=none;spacingLeft=4;spacingRight=4;overflow=hidden;rotatable=0;points=[[0,0.5],[1,0.5]];portConstraint=eastwest;fontSize=12;whiteSpace=wrap;html=1;" vertex="1" parent="Ig3IrDDyf_KYGwmNzcXG-31">
          <mxGeometry y="26" width="220" height="30" as="geometry" />
        </mxCell>
        <mxCell id="Ig3IrDDyf_KYGwmNzcXG-33" value="accuracy: string" style="text;strokeColor=none;fillColor=none;spacingLeft=4;spacingRight=4;overflow=hidden;rotatable=0;points=[[0,0.5],[1,0.5]];portConstraint=eastwest;fontSize=12;whiteSpace=wrap;html=1;" vertex="1" parent="Ig3IrDDyf_KYGwmNzcXG-31">
          <mxGeometry y="56" width="220" height="30" as="geometry" />
        </mxCell>
        <mxCell id="Ig3IrDDyf_KYGwmNzcXG-34" value="customPrompt: string" style="text;strokeColor=none;fillColor=none;spacingLeft=4;spacingRight=4;overflow=hidden;rotatable=0;points=[[0,0.5],[1,0.5]];portConstraint=eastwest;fontSize=12;whiteSpace=wrap;html=1;" vertex="1" parent="Ig3IrDDyf_KYGwmNzcXG-31">
          <mxGeometry y="86" width="220" height="30" as="geometry" />
        </mxCell>
        <mxCell id="Ig3IrDDyf_KYGwmNzcXG-35" value="incidents: ApplicationIncident[]" style="text;strokeColor=none;fillColor=none;spacingLeft=4;spacingRight=4;overflow=hidden;rotatable=0;points=[[0,0.5],[1,0.5]];portConstraint=eastwest;fontSize=12;whiteSpace=wrap;html=1;" vertex="1" parent="Ig3IrDDyf_KYGwmNzcXG-31">
          <mxGeometry y="116" width="220" height="30" as="geometry" />
        </mxCell>
        <mxCell id="Ig3IrDDyf_KYGwmNzcXG-36" value="NodeIncident" style="swimlane;fontStyle=0;childLayout=stackLayout;horizontal=1;startSize=26;horizontalStack=0;resizeParent=1;resizeParentMax=0;resizeLast=0;collapsible=1;marginBottom=0;align=center;fontSize=14;" vertex="1" parent="1">
          <mxGeometry x="1730" y="820" width="190" height="356" as="geometry" />
        </mxCell>
        <mxCell id="Ig3IrDDyf_KYGwmNzcXG-37" value="id: string" style="text;strokeColor=none;fillColor=none;spacingLeft=4;spacingRight=4;overflow=hidden;rotatable=0;points=[[0,0.5],[1,0.5]];portConstraint=eastwest;fontSize=12;whiteSpace=wrap;html=1;" vertex="1" parent="Ig3IrDDyf_KYGwmNzcXG-36">
          <mxGeometry y="26" width="190" height="30" as="geometry" />
        </mxCell>
        <mxCell id="Ig3IrDDyf_KYGwmNzcXG-38" value="title: string" style="text;strokeColor=none;fillColor=none;spacingLeft=4;spacingRight=4;overflow=hidden;rotatable=0;points=[[0,0.5],[1,0.5]];portConstraint=eastwest;fontSize=12;whiteSpace=wrap;html=1;" vertex="1" parent="Ig3IrDDyf_KYGwmNzcXG-36">
          <mxGeometry y="56" width="190" height="30" as="geometry" />
        </mxCell>
        <mxCell id="Ig3IrDDyf_KYGwmNzcXG-39" value="customPrompt: string" style="text;strokeColor=none;fillColor=none;spacingLeft=4;spacingRight=4;overflow=hidden;rotatable=0;points=[[0,0.5],[1,0.5]];portConstraint=eastwest;fontSize=12;whiteSpace=wrap;html=1;" vertex="1" parent="Ig3IrDDyf_KYGwmNzcXG-36">
          <mxGeometry y="86" width="190" height="30" as="geometry" />
        </mxCell>
        <mxCell id="Ig3IrDDyf_KYGwmNzcXG-40" value="accuracy: string" style="text;strokeColor=none;fillColor=none;spacingLeft=4;spacingRight=4;overflow=hidden;rotatable=0;points=[[0,0.5],[1,0.5]];portConstraint=eastwest;fontSize=12;whiteSpace=wrap;html=1;" vertex="1" parent="Ig3IrDDyf_KYGwmNzcXG-36">
          <mxGeometry y="116" width="190" height="30" as="geometry" />
        </mxCell>
        <mxCell id="Ig3IrDDyf_KYGwmNzcXG-41" value="clusterId: string" style="text;strokeColor=none;fillColor=none;spacingLeft=4;spacingRight=4;overflow=hidden;rotatable=0;points=[[0,0.5],[1,0.5]];portConstraint=eastwest;fontSize=12;whiteSpace=wrap;html=1;" vertex="1" parent="Ig3IrDDyf_KYGwmNzcXG-36">
          <mxGeometry y="146" width="190" height="30" as="geometry" />
        </mxCell>
        <mxCell id="Ig3IrDDyf_KYGwmNzcXG-42" value="nodeName: string" style="text;strokeColor=none;fillColor=none;spacingLeft=4;spacingRight=4;overflow=hidden;rotatable=0;points=[[0,0.5],[1,0.5]];portConstraint=eastwest;fontSize=12;whiteSpace=wrap;html=1;" vertex="1" parent="Ig3IrDDyf_KYGwmNzcXG-36">
          <mxGeometry y="176" width="190" height="30" as="geometry" />
        </mxCell>
        <mxCell id="Ig3IrDDyf_KYGwmNzcXG-43" value="category: string" style="text;strokeColor=none;fillColor=none;spacingLeft=4;spacingRight=4;overflow=hidden;rotatable=0;points=[[0,0.5],[1,0.5]];portConstraint=eastwest;fontSize=12;whiteSpace=wrap;html=1;" vertex="1" parent="Ig3IrDDyf_KYGwmNzcXG-36">
          <mxGeometry y="206" width="190" height="30" as="geometry" />
        </mxCell>
        <mxCell id="Ig3IrDDyf_KYGwmNzcXG-44" value="summary: string" style="text;strokeColor=none;fillColor=none;spacingLeft=4;spacingRight=4;overflow=hidden;rotatable=0;points=[[0,0.5],[1,0.5]];portConstraint=eastwest;fontSize=12;whiteSpace=wrap;html=1;" vertex="1" parent="Ig3IrDDyf_KYGwmNzcXG-36">
          <mxGeometry y="236" width="190" height="30" as="geometry" />
        </mxCell>
        <mxCell id="Ig3IrDDyf_KYGwmNzcXG-45" value="recommendation: string" style="text;strokeColor=none;fillColor=none;spacingLeft=4;spacingRight=4;overflow=hidden;rotatable=0;points=[[0,0.5],[1,0.5]];portConstraint=eastwest;fontSize=12;whiteSpace=wrap;html=1;" vertex="1" parent="Ig3IrDDyf_KYGwmNzcXG-36">
          <mxGeometry y="266" width="190" height="30" as="geometry" />
        </mxCell>
        <mxCell id="Ig3IrDDyf_KYGwmNzcXG-46" value="urgency: string" style="text;strokeColor=none;fillColor=none;spacingLeft=4;spacingRight=4;overflow=hidden;rotatable=0;points=[[0,0.5],[1,0.5]];portConstraint=eastwest;fontSize=12;whiteSpace=wrap;html=1;" vertex="1" parent="Ig3IrDDyf_KYGwmNzcXG-36">
          <mxGeometry y="296" width="190" height="30" as="geometry" />
        </mxCell>
        <mxCell id="Ig3IrDDyf_KYGwmNzcXG-47" value="sources: NodeIncidentSource[]" style="text;strokeColor=none;fillColor=none;spacingLeft=4;spacingRight=4;overflow=hidden;rotatable=0;points=[[0,0.5],[1,0.5]];portConstraint=eastwest;fontSize=12;whiteSpace=wrap;html=1;" vertex="1" parent="Ig3IrDDyf_KYGwmNzcXG-36">
          <mxGeometry y="326" width="190" height="30" as="geometry" />
        </mxCell>
        <mxCell id="Ig3IrDDyf_KYGwmNzcXG-48" value="ApplicationIncident" style="swimlane;fontStyle=0;childLayout=stackLayout;horizontal=1;startSize=26;horizontalStack=0;resizeParent=1;resizeParentMax=0;resizeLast=0;collapsible=1;marginBottom=0;align=center;fontSize=14;" vertex="1" parent="1">
          <mxGeometry x="210" y="820" width="190" height="370" as="geometry" />
        </mxCell>
        <mxCell id="Ig3IrDDyf_KYGwmNzcXG-49" value="id: string" style="text;strokeColor=none;fillColor=none;spacingLeft=4;spacingRight=4;overflow=hidden;rotatable=0;points=[[0,0.5],[1,0.5]];portConstraint=eastwest;fontSize=12;whiteSpace=wrap;html=1;" vertex="1" parent="Ig3IrDDyf_KYGwmNzcXG-48">
          <mxGeometry y="26" width="190" height="30" as="geometry" />
        </mxCell>
        <mxCell id="Ig3IrDDyf_KYGwmNzcXG-50" value="title: string" style="text;strokeColor=none;fillColor=none;spacingLeft=4;spacingRight=4;overflow=hidden;rotatable=0;points=[[0,0.5],[1,0.5]];portConstraint=eastwest;fontSize=12;whiteSpace=wrap;html=1;" vertex="1" parent="Ig3IrDDyf_KYGwmNzcXG-48">
          <mxGeometry y="56" width="190" height="30" as="geometry" />
        </mxCell>
        <mxCell id="Ig3IrDDyf_KYGwmNzcXG-51" value="customPrompt: string" style="text;strokeColor=none;fillColor=none;spacingLeft=4;spacingRight=4;overflow=hidden;rotatable=0;points=[[0,0.5],[1,0.5]];portConstraint=eastwest;fontSize=12;whiteSpace=wrap;html=1;" vertex="1" parent="Ig3IrDDyf_KYGwmNzcXG-48">
          <mxGeometry y="86" width="190" height="30" as="geometry" />
        </mxCell>
        <mxCell id="Ig3IrDDyf_KYGwmNzcXG-52" value="accuracy: string" style="text;strokeColor=none;fillColor=none;spacingLeft=4;spacingRight=4;overflow=hidden;rotatable=0;points=[[0,0.5],[1,0.5]];portConstraint=eastwest;fontSize=12;whiteSpace=wrap;html=1;" vertex="1" parent="Ig3IrDDyf_KYGwmNzcXG-48">
          <mxGeometry y="116" width="190" height="30" as="geometry" />
        </mxCell>
        <mxCell id="Ig3IrDDyf_KYGwmNzcXG-53" value="clusterId: string" style="text;strokeColor=none;fillColor=none;spacingLeft=4;spacingRight=4;overflow=hidden;rotatable=0;points=[[0,0.5],[1,0.5]];portConstraint=eastwest;fontSize=12;whiteSpace=wrap;html=1;" vertex="1" parent="Ig3IrDDyf_KYGwmNzcXG-48">
          <mxGeometry y="146" width="190" height="30" as="geometry" />
        </mxCell>
        <mxCell id="Ig3IrDDyf_KYGwmNzcXG-54" value="applicationName: string" style="text;strokeColor=none;fillColor=none;spacingLeft=4;spacingRight=4;overflow=hidden;rotatable=0;points=[[0,0.5],[1,0.5]];portConstraint=eastwest;fontSize=12;whiteSpace=wrap;html=1;" vertex="1" parent="Ig3IrDDyf_KYGwmNzcXG-48">
          <mxGeometry y="176" width="190" height="30" as="geometry" />
        </mxCell>
        <mxCell id="Ig3IrDDyf_KYGwmNzcXG-55" value="category: string" style="text;strokeColor=none;fillColor=none;spacingLeft=4;spacingRight=4;overflow=hidden;rotatable=0;points=[[0,0.5],[1,0.5]];portConstraint=eastwest;fontSize=12;whiteSpace=wrap;html=1;" vertex="1" parent="Ig3IrDDyf_KYGwmNzcXG-48">
          <mxGeometry y="206" width="190" height="30" as="geometry" />
        </mxCell>
        <mxCell id="Ig3IrDDyf_KYGwmNzcXG-56" value="summary: string" style="text;strokeColor=none;fillColor=none;spacingLeft=4;spacingRight=4;overflow=hidden;rotatable=0;points=[[0,0.5],[1,0.5]];portConstraint=eastwest;fontSize=12;whiteSpace=wrap;html=1;" vertex="1" parent="Ig3IrDDyf_KYGwmNzcXG-48">
          <mxGeometry y="236" width="190" height="30" as="geometry" />
        </mxCell>
        <mxCell id="Ig3IrDDyf_KYGwmNzcXG-57" value="recommendation: string" style="text;strokeColor=none;fillColor=none;spacingLeft=4;spacingRight=4;overflow=hidden;rotatable=0;points=[[0,0.5],[1,0.5]];portConstraint=eastwest;fontSize=12;whiteSpace=wrap;html=1;" vertex="1" parent="Ig3IrDDyf_KYGwmNzcXG-48">
          <mxGeometry y="266" width="190" height="30" as="geometry" />
        </mxCell>
        <mxCell id="Ig3IrDDyf_KYGwmNzcXG-58" value="urgency: string" style="text;strokeColor=none;fillColor=none;spacingLeft=4;spacingRight=4;overflow=hidden;rotatable=0;points=[[0,0.5],[1,0.5]];portConstraint=eastwest;fontSize=12;whiteSpace=wrap;html=1;" vertex="1" parent="Ig3IrDDyf_KYGwmNzcXG-48">
          <mxGeometry y="296" width="190" height="30" as="geometry" />
        </mxCell>
        <mxCell id="Ig3IrDDyf_KYGwmNzcXG-59" value="sources: ApplicationIncidentSource[]" style="text;strokeColor=none;fillColor=none;spacingLeft=4;spacingRight=4;overflow=hidden;rotatable=0;points=[[0,0.5],[1,0.5]];portConstraint=eastwest;fontSize=12;whiteSpace=wrap;html=1;" vertex="1" parent="Ig3IrDDyf_KYGwmNzcXG-48">
          <mxGeometry y="326" width="190" height="44" as="geometry" />
        </mxCell>
        <mxCell id="Ig3IrDDyf_KYGwmNzcXG-60" value="ApplicationIncidentSource" style="swimlane;fontStyle=0;childLayout=stackLayout;horizontal=1;startSize=26;horizontalStack=0;resizeParent=1;resizeParentMax=0;resizeLast=0;collapsible=1;marginBottom=0;align=center;fontSize=14;" vertex="1" parent="1">
          <mxGeometry x="490" y="1280" width="190" height="176" as="geometry" />
        </mxCell>
        <mxCell id="Ig3IrDDyf_KYGwmNzcXG-61" value="timestamp: number" style="text;strokeColor=none;fillColor=none;spacingLeft=4;spacingRight=4;overflow=hidden;rotatable=0;points=[[0,0.5],[1,0.5]];portConstraint=eastwest;fontSize=12;whiteSpace=wrap;html=1;" vertex="1" parent="Ig3IrDDyf_KYGwmNzcXG-60">
          <mxGeometry y="26" width="190" height="30" as="geometry" />
        </mxCell>
        <mxCell id="Ig3IrDDyf_KYGwmNzcXG-62" value="podName: string" style="text;strokeColor=none;fillColor=none;spacingLeft=4;spacingRight=4;overflow=hidden;rotatable=0;points=[[0,0.5],[1,0.5]];portConstraint=eastwest;fontSize=12;whiteSpace=wrap;html=1;" vertex="1" parent="Ig3IrDDyf_KYGwmNzcXG-60">
          <mxGeometry y="56" width="190" height="30" as="geometry" />
        </mxCell>
        <mxCell id="Ig3IrDDyf_KYGwmNzcXG-63" value="containerName: string" style="text;strokeColor=none;fillColor=none;spacingLeft=4;spacingRight=4;overflow=hidden;rotatable=0;points=[[0,0.5],[1,0.5]];portConstraint=eastwest;fontSize=12;whiteSpace=wrap;html=1;" vertex="1" parent="Ig3IrDDyf_KYGwmNzcXG-60">
          <mxGeometry y="86" width="190" height="30" as="geometry" />
        </mxCell>
        <mxCell id="Ig3IrDDyf_KYGwmNzcXG-65" value="content: string" style="text;strokeColor=none;fillColor=none;spacingLeft=4;spacingRight=4;overflow=hidden;rotatable=0;points=[[0,0.5],[1,0.5]];portConstraint=eastwest;fontSize=12;whiteSpace=wrap;html=1;" vertex="1" parent="Ig3IrDDyf_KYGwmNzcXG-60">
          <mxGeometry y="116" width="190" height="30" as="geometry" />
        </mxCell>
        <mxCell id="Ig3IrDDyf_KYGwmNzcXG-64" value="image: string" style="text;strokeColor=none;fillColor=none;spacingLeft=4;spacingRight=4;overflow=hidden;rotatable=0;points=[[0,0.5],[1,0.5]];portConstraint=eastwest;fontSize=12;whiteSpace=wrap;html=1;" vertex="1" parent="Ig3IrDDyf_KYGwmNzcXG-60">
          <mxGeometry y="146" width="190" height="30" as="geometry" />
        </mxCell>
        <mxCell id="Ig3IrDDyf_KYGwmNzcXG-66" value="NodeIncidentSource" style="swimlane;fontStyle=0;childLayout=stackLayout;horizontal=1;startSize=26;horizontalStack=0;resizeParent=1;resizeParentMax=0;resizeLast=0;collapsible=1;marginBottom=0;align=center;fontSize=14;" vertex="1" parent="1">
          <mxGeometry x="1470" y="1270" width="190" height="116" as="geometry" />
        </mxCell>
        <mxCell id="Ig3IrDDyf_KYGwmNzcXG-67" value="timestamp: number" style="text;strokeColor=none;fillColor=none;spacingLeft=4;spacingRight=4;overflow=hidden;rotatable=0;points=[[0,0.5],[1,0.5]];portConstraint=eastwest;fontSize=12;whiteSpace=wrap;html=1;" vertex="1" parent="Ig3IrDDyf_KYGwmNzcXG-66">
          <mxGeometry y="26" width="190" height="30" as="geometry" />
        </mxCell>
        <mxCell id="Ig3IrDDyf_KYGwmNzcXG-72" value="filename: string" style="text;strokeColor=none;fillColor=none;spacingLeft=4;spacingRight=4;overflow=hidden;rotatable=0;points=[[0,0.5],[1,0.5]];portConstraint=eastwest;fontSize=12;whiteSpace=wrap;html=1;" vertex="1" parent="Ig3IrDDyf_KYGwmNzcXG-66">
          <mxGeometry y="56" width="190" height="30" as="geometry" />
        </mxCell>
        <mxCell id="Ig3IrDDyf_KYGwmNzcXG-70" value="content: string" style="text;strokeColor=none;fillColor=none;spacingLeft=4;spacingRight=4;overflow=hidden;rotatable=0;points=[[0,0.5],[1,0.5]];portConstraint=eastwest;fontSize=12;whiteSpace=wrap;html=1;" vertex="1" parent="Ig3IrDDyf_KYGwmNzcXG-66">
          <mxGeometry y="86" width="190" height="30" as="geometry" />
        </mxCell>
        <mxCell id="Ig3IrDDyf_KYGwmNzcXG-73" value="ScheduledApplicationInsights" style="swimlane;fontStyle=0;childLayout=stackLayout;horizontal=1;startSize=26;horizontalStack=0;resizeParent=1;resizeParentMax=0;resizeLast=0;collapsible=1;marginBottom=0;align=center;fontSize=14;" vertex="1" parent="1">
          <mxGeometry x="430" y="860" width="320" height="176" as="geometry" />
        </mxCell>
        <mxCell id="Ig3IrDDyf_KYGwmNzcXG-74" value="scheduledJobIds: string[]" style="text;strokeColor=none;fillColor=none;spacingLeft=4;spacingRight=4;overflow=hidden;rotatable=0;points=[[0,0.5],[1,0.5]];portConstraint=eastwest;fontSize=12;whiteSpace=wrap;html=1;" vertex="1" parent="Ig3IrDDyf_KYGwmNzcXG-73">
          <mxGeometry y="26" width="320" height="30" as="geometry" />
        </mxCell>
        <mxCell id="Ig3IrDDyf_KYGwmNzcXG-75" value="sinceMs: number" style="text;strokeColor=none;fillColor=none;spacingLeft=4;spacingRight=4;overflow=hidden;rotatable=0;points=[[0,0.5],[1,0.5]];portConstraint=eastwest;fontSize=12;whiteSpace=wrap;html=1;" vertex="1" parent="Ig3IrDDyf_KYGwmNzcXG-73">
          <mxGeometry y="56" width="320" height="30" as="geometry" />
        </mxCell>
        <mxCell id="Ig3IrDDyf_KYGwmNzcXG-76" value="toMs: number" style="text;strokeColor=none;fillColor=none;spacingLeft=4;spacingRight=4;overflow=hidden;rotatable=0;points=[[0,0.5],[1,0.5]];portConstraint=eastwest;fontSize=12;whiteSpace=wrap;html=1;" vertex="1" parent="Ig3IrDDyf_KYGwmNzcXG-73">
          <mxGeometry y="86" width="320" height="30" as="geometry" />
        </mxCell>
        <mxCell id="Ig3IrDDyf_KYGwmNzcXG-77" value="clusterId: string" style="text;strokeColor=none;fillColor=none;spacingLeft=4;spacingRight=4;overflow=hidden;rotatable=0;points=[[0,0.5],[1,0.5]];portConstraint=eastwest;fontSize=12;whiteSpace=wrap;html=1;" vertex="1" parent="Ig3IrDDyf_KYGwmNzcXG-73">
          <mxGeometry y="116" width="320" height="30" as="geometry" />
        </mxCell>
        <mxCell id="Ig3IrDDyf_KYGwmNzcXG-78" value="applicationConfiguration: ApplicationInsightConfiguration[]" style="text;strokeColor=none;fillColor=none;spacingLeft=4;spacingRight=4;overflow=hidden;rotatable=0;points=[[0,0.5],[1,0.5]];portConstraint=eastwest;fontSize=12;whiteSpace=wrap;html=1;" vertex="1" parent="Ig3IrDDyf_KYGwmNzcXG-73">
          <mxGeometry y="146" width="320" height="30" as="geometry" />
        </mxCell>
        <mxCell id="Ig3IrDDyf_KYGwmNzcXG-79" value="ScheduledNodeInsights" style="swimlane;fontStyle=0;childLayout=stackLayout;horizontal=1;startSize=26;horizontalStack=0;resizeParent=1;resizeParentMax=0;resizeLast=0;collapsible=1;marginBottom=0;align=center;fontSize=14;" vertex="1" parent="1">
          <mxGeometry x="1340" y="850" width="380" height="176" as="geometry" />
        </mxCell>
        <mxCell id="Ig3IrDDyf_KYGwmNzcXG-80" value="scheduledJobIds: string[]" style="text;strokeColor=none;fillColor=none;spacingLeft=4;spacingRight=4;overflow=hidden;rotatable=0;points=[[0,0.5],[1,0.5]];portConstraint=eastwest;fontSize=12;whiteSpace=wrap;html=1;" vertex="1" parent="Ig3IrDDyf_KYGwmNzcXG-79">
          <mxGeometry y="26" width="380" height="30" as="geometry" />
        </mxCell>
        <mxCell id="Ig3IrDDyf_KYGwmNzcXG-81" value="sinceMs: number" style="text;strokeColor=none;fillColor=none;spacingLeft=4;spacingRight=4;overflow=hidden;rotatable=0;points=[[0,0.5],[1,0.5]];portConstraint=eastwest;fontSize=12;whiteSpace=wrap;html=1;" vertex="1" parent="Ig3IrDDyf_KYGwmNzcXG-79">
          <mxGeometry y="56" width="380" height="30" as="geometry" />
        </mxCell>
        <mxCell id="Ig3IrDDyf_KYGwmNzcXG-82" value="toMs: number" style="text;strokeColor=none;fillColor=none;spacingLeft=4;spacingRight=4;overflow=hidden;rotatable=0;points=[[0,0.5],[1,0.5]];portConstraint=eastwest;fontSize=12;whiteSpace=wrap;html=1;" vertex="1" parent="Ig3IrDDyf_KYGwmNzcXG-79">
          <mxGeometry y="86" width="380" height="30" as="geometry" />
        </mxCell>
        <mxCell id="Ig3IrDDyf_KYGwmNzcXG-83" value="clusterId: string" style="text;strokeColor=none;fillColor=none;spacingLeft=4;spacingRight=4;overflow=hidden;rotatable=0;points=[[0,0.5],[1,0.5]];portConstraint=eastwest;fontSize=12;whiteSpace=wrap;html=1;" vertex="1" parent="Ig3IrDDyf_KYGwmNzcXG-79">
          <mxGeometry y="116" width="380" height="30" as="geometry" />
        </mxCell>
        <mxCell id="Ig3IrDDyf_KYGwmNzcXG-84" value="nodeConfiguration: NodeInsightConfiguration[]" style="text;strokeColor=none;fillColor=none;spacingLeft=4;spacingRight=4;overflow=hidden;rotatable=0;points=[[0,0.5],[1,0.5]];portConstraint=eastwest;fontSize=12;whiteSpace=wrap;html=1;" vertex="1" parent="Ig3IrDDyf_KYGwmNzcXG-79">
          <mxGeometry y="146" width="380" height="30" as="geometry" />
        </mxCell>
        <mxCell id="Ig3IrDDyf_KYGwmNzcXG-85" value="NodeInsightConfiguration" style="swimlane;fontStyle=0;childLayout=stackLayout;horizontal=1;startSize=26;horizontalStack=0;resizeParent=1;resizeParentMax=0;resizeLast=0;collapsible=1;marginBottom=0;align=center;fontSize=14;" vertex="1" parent="1">
          <mxGeometry x="1390" y="1074" width="190" height="116" as="geometry" />
        </mxCell>
        <mxCell id="Ig3IrDDyf_KYGwmNzcXG-86" value="nodeName: string" style="text;strokeColor=none;fillColor=none;spacingLeft=4;spacingRight=4;overflow=hidden;rotatable=0;points=[[0,0.5],[1,0.5]];portConstraint=eastwest;fontSize=12;whiteSpace=wrap;html=1;" vertex="1" parent="Ig3IrDDyf_KYGwmNzcXG-85">
          <mxGeometry y="26" width="190" height="30" as="geometry" />
        </mxCell>
        <mxCell id="Ig3IrDDyf_KYGwmNzcXG-87" value="accuracy: string" style="text;strokeColor=none;fillColor=none;spacingLeft=4;spacingRight=4;overflow=hidden;rotatable=0;points=[[0,0.5],[1,0.5]];portConstraint=eastwest;fontSize=12;whiteSpace=wrap;html=1;" vertex="1" parent="Ig3IrDDyf_KYGwmNzcXG-85">
          <mxGeometry y="56" width="190" height="30" as="geometry" />
        </mxCell>
        <mxCell id="Ig3IrDDyf_KYGwmNzcXG-88" value="customPrompt: string" style="text;strokeColor=none;fillColor=none;spacingLeft=4;spacingRight=4;overflow=hidden;rotatable=0;points=[[0,0.5],[1,0.5]];portConstraint=eastwest;fontSize=12;whiteSpace=wrap;html=1;" vertex="1" parent="Ig3IrDDyf_KYGwmNzcXG-85">
          <mxGeometry y="86" width="190" height="30" as="geometry" />
        </mxCell>
        <mxCell id="Ig3IrDDyf_KYGwmNzcXG-91" value="ApplicationInsightConfiguration" style="swimlane;fontStyle=0;childLayout=stackLayout;horizontal=1;startSize=26;horizontalStack=0;resizeParent=1;resizeParentMax=0;resizeLast=0;collapsible=1;marginBottom=0;align=center;fontSize=14;" vertex="1" parent="1">
          <mxGeometry x="525" y="1110" width="270" height="116" as="geometry" />
        </mxCell>
        <mxCell id="Ig3IrDDyf_KYGwmNzcXG-92" value="applicationName: string" style="text;strokeColor=none;fillColor=none;spacingLeft=4;spacingRight=4;overflow=hidden;rotatable=0;points=[[0,0.5],[1,0.5]];portConstraint=eastwest;fontSize=12;whiteSpace=wrap;html=1;" vertex="1" parent="Ig3IrDDyf_KYGwmNzcXG-91">
          <mxGeometry y="26" width="270" height="30" as="geometry" />
        </mxCell>
        <mxCell id="Ig3IrDDyf_KYGwmNzcXG-93" value="accuracy: string" style="text;strokeColor=none;fillColor=none;spacingLeft=4;spacingRight=4;overflow=hidden;rotatable=0;points=[[0,0.5],[1,0.5]];portConstraint=eastwest;fontSize=12;whiteSpace=wrap;html=1;" vertex="1" parent="Ig3IrDDyf_KYGwmNzcXG-91">
          <mxGeometry y="56" width="270" height="30" as="geometry" />
        </mxCell>
        <mxCell id="Ig3IrDDyf_KYGwmNzcXG-94" value="customPrompt: string" style="text;strokeColor=none;fillColor=none;spacingLeft=4;spacingRight=4;overflow=hidden;rotatable=0;points=[[0,0.5],[1,0.5]];portConstraint=eastwest;fontSize=12;whiteSpace=wrap;html=1;" vertex="1" parent="Ig3IrDDyf_KYGwmNzcXG-91">
          <mxGeometry y="86" width="270" height="30" as="geometry" />
        </mxCell>
        <mxCell id="Ig3IrDDyf_KYGwmNzcXG-105" value="" style="edgeStyle=entityRelationEdgeStyle;fontSize=12;html=1;endArrow=ERoneToMany;rounded=0;exitX=1;exitY=0.5;exitDx=0;exitDy=0;entryX=-0.025;entryY=-0.067;entryDx=0;entryDy=0;entryPerimeter=0;" edge="1" parent="1" source="Ig3IrDDyf_KYGwmNzcXG-15" target="Ig3IrDDyf_KYGwmNzcXG-6">
          <mxGeometry width="100" height="100" relative="1" as="geometry">
            <mxPoint x="970" y="1020" as="sourcePoint" />
            <mxPoint x="1070" y="920" as="targetPoint" />
          </mxGeometry>
        </mxCell>
        <mxCell id="Ig3IrDDyf_KYGwmNzcXG-106" value="" style="edgeStyle=entityRelationEdgeStyle;fontSize=12;html=1;endArrow=ERoneToMany;rounded=0;exitX=0;exitY=0.5;exitDx=0;exitDy=0;entryX=1;entryY=0.096;entryDx=0;entryDy=0;entryPerimeter=0;" edge="1" parent="1" source="Ig3IrDDyf_KYGwmNzcXG-16" target="Ig3IrDDyf_KYGwmNzcXG-31">
          <mxGeometry width="100" height="100" relative="1" as="geometry">
            <mxPoint x="970" y="1020" as="sourcePoint" />
            <mxPoint x="1070" y="920" as="targetPoint" />
          </mxGeometry>
        </mxCell>
        <mxCell id="Ig3IrDDyf_KYGwmNzcXG-112" value="" style="edgeStyle=entityRelationEdgeStyle;fontSize=12;html=1;endArrow=ERoneToMany;rounded=0;exitX=0;exitY=0.5;exitDx=0;exitDy=0;entryX=0.998;entryY=0.051;entryDx=0;entryDy=0;entryPerimeter=0;" edge="1" parent="1" source="Ig3IrDDyf_KYGwmNzcXG-35" target="Ig3IrDDyf_KYGwmNzcXG-48">
          <mxGeometry width="100" height="100" relative="1" as="geometry">
            <mxPoint x="430" y="1100" as="sourcePoint" />
            <mxPoint x="530" y="1000" as="targetPoint" />
          </mxGeometry>
        </mxCell>
        <mxCell id="Ig3IrDDyf_KYGwmNzcXG-113" value="" style="edgeStyle=entityRelationEdgeStyle;fontSize=12;html=1;endArrow=ERmandOne;startArrow=ERmandOne;rounded=0;entryX=0;entryY=0.5;entryDx=0;entryDy=0;exitX=1;exitY=0.5;exitDx=0;exitDy=0;" edge="1" parent="1" source="Ig3IrDDyf_KYGwmNzcXG-74" target="Ig3IrDDyf_KYGwmNzcXG-20">
          <mxGeometry width="100" height="100" relative="1" as="geometry">
            <mxPoint x="640" y="1140" as="sourcePoint" />
            <mxPoint x="740" y="1040" as="targetPoint" />
            <Array as="points">
              <mxPoint x="790" y="1020" />
              <mxPoint x="760" y="970" />
              <mxPoint x="670" y="1010" />
            </Array>
          </mxGeometry>
        </mxCell>
        <mxCell id="Ig3IrDDyf_KYGwmNzcXG-118" value="" style="edgeStyle=entityRelationEdgeStyle;fontSize=12;html=1;endArrow=ERmandOne;startArrow=ERmandOne;rounded=0;entryX=0.004;entryY=0.133;entryDx=0;entryDy=0;entryPerimeter=0;exitX=1;exitY=0.5;exitDx=0;exitDy=0;" edge="1" parent="1" source="Ig3IrDDyf_KYGwmNzcXG-21" target="Ig3IrDDyf_KYGwmNzcXG-80">
          <mxGeometry width="100" height="100" relative="1" as="geometry">
            <mxPoint x="1170" y="1080" as="sourcePoint" />
            <mxPoint x="1270" y="980" as="targetPoint" />
          </mxGeometry>
        </mxCell>
        <mxCell id="Ig3IrDDyf_KYGwmNzcXG-119" value="" style="edgeStyle=entityRelationEdgeStyle;fontSize=12;html=1;endArrow=ERoneToMany;rounded=0;exitX=1.019;exitY=0.189;exitDx=0;exitDy=0;exitPerimeter=0;entryX=0;entryY=0.056;entryDx=0;entryDy=0;entryPerimeter=0;" edge="1" parent="1" source="Ig3IrDDyf_KYGwmNzcXG-30" target="Ig3IrDDyf_KYGwmNzcXG-36">
          <mxGeometry width="100" height="100" relative="1" as="geometry">
            <mxPoint x="1220" y="1080" as="sourcePoint" />
            <mxPoint x="1320" y="980" as="targetPoint" />
          </mxGeometry>
        </mxCell>
        <mxCell id="Ig3IrDDyf_KYGwmNzcXG-121" value="" style="edgeStyle=entityRelationEdgeStyle;fontSize=12;html=1;endArrow=ERoneToMany;rounded=0;entryX=0;entryY=0.5;entryDx=0;entryDy=0;exitX=1.005;exitY=0.283;exitDx=0;exitDy=0;exitPerimeter=0;" edge="1" parent="1" source="Ig3IrDDyf_KYGwmNzcXG-78">
          <mxGeometry width="100" height="100" relative="1" as="geometry">
            <mxPoint x="792.5" y="1020" as="sourcePoint" />
            <mxPoint x="527.5" y="1150" as="targetPoint" />
            <Array as="points">
              <mxPoint x="842.5" y="1059" />
            </Array>
          </mxGeometry>
        </mxCell>
        <mxCell id="Ig3IrDDyf_KYGwmNzcXG-123" value="" style="edgeStyle=entityRelationEdgeStyle;fontSize=12;html=1;endArrow=ERoneToMany;rounded=0;exitX=1;exitY=0.5;exitDx=0;exitDy=0;entryX=0;entryY=0.5;entryDx=0;entryDy=0;" edge="1" parent="1" source="Ig3IrDDyf_KYGwmNzcXG-59" target="Ig3IrDDyf_KYGwmNzcXG-61">
          <mxGeometry width="100" height="100" relative="1" as="geometry">
            <mxPoint x="560" y="1160" as="sourcePoint" />
            <mxPoint x="660" y="1060" as="targetPoint" />
          </mxGeometry>
        </mxCell>
        <mxCell id="Ig3IrDDyf_KYGwmNzcXG-124" value="" style="edgeStyle=entityRelationEdgeStyle;fontSize=12;html=1;endArrow=ERoneToMany;rounded=0;exitX=0;exitY=0.5;exitDx=0;exitDy=0;entryX=1.004;entryY=0.138;entryDx=0;entryDy=0;entryPerimeter=0;" edge="1" parent="1" source="Ig3IrDDyf_KYGwmNzcXG-47" target="Ig3IrDDyf_KYGwmNzcXG-66">
          <mxGeometry width="100" height="100" relative="1" as="geometry">
            <mxPoint x="1490" y="1180" as="sourcePoint" />
            <mxPoint x="1590" y="1080" as="targetPoint" />
          </mxGeometry>
        </mxCell>
        <mxCell id="Ig3IrDDyf_KYGwmNzcXG-126" value="ScheduledOpenAiJob" style="swimlane;fontStyle=0;childLayout=stackLayout;horizontal=1;startSize=26;horizontalStack=0;resizeParent=1;resizeParentMax=0;resizeLast=0;collapsible=1;marginBottom=0;align=center;fontSize=14;" vertex="1" parent="1">
          <mxGeometry x="955" y="1176" width="190" height="176" as="geometry" />
        </mxCell>
        <mxCell id="Ig3IrDDyf_KYGwmNzcXG-127" value="id: string" style="text;strokeColor=none;fillColor=none;spacingLeft=4;spacingRight=4;overflow=hidden;rotatable=0;points=[[0,0.5],[1,0.5]];portConstraint=eastwest;fontSize=12;whiteSpace=wrap;html=1;" vertex="1" parent="Ig3IrDDyf_KYGwmNzcXG-126">
          <mxGeometry y="26" width="190" height="30" as="geometry" />
        </mxCell>
        <mxCell id="Ig3IrDDyf_KYGwmNzcXG-128" value="scheduledAt: number" style="text;strokeColor=none;fillColor=none;spacingLeft=4;spacingRight=4;overflow=hidden;rotatable=0;points=[[0,0.5],[1,0.5]];portConstraint=eastwest;fontSize=12;whiteSpace=wrap;html=1;" vertex="1" parent="Ig3IrDDyf_KYGwmNzcXG-126">
          <mxGeometry y="56" width="190" height="30" as="geometry" />
        </mxCell>
        <mxCell id="Ig3IrDDyf_KYGwmNzcXG-129" value="completionRequest: string" style="text;strokeColor=none;fillColor=none;spacingLeft=4;spacingRight=4;overflow=hidden;rotatable=0;points=[[0,0.5],[1,0.5]];portConstraint=eastwest;fontSize=12;whiteSpace=wrap;html=1;" vertex="1" parent="Ig3IrDDyf_KYGwmNzcXG-126">
          <mxGeometry y="86" width="190" height="30" as="geometry" />
        </mxCell>
        <mxCell id="Ig3IrDDyf_KYGwmNzcXG-130" value="status: string" style="text;strokeColor=none;fillColor=none;spacingLeft=4;spacingRight=4;overflow=hidden;rotatable=0;points=[[0,0.5],[1,0.5]];portConstraint=eastwest;fontSize=12;whiteSpace=wrap;html=1;" vertex="1" parent="Ig3IrDDyf_KYGwmNzcXG-126">
          <mxGeometry y="116" width="190" height="30" as="geometry" />
        </mxCell>
        <mxCell id="Ig3IrDDyf_KYGwmNzcXG-131" value="batchId: string" style="text;strokeColor=none;fillColor=none;spacingLeft=4;spacingRight=4;overflow=hidden;rotatable=0;points=[[0,0.5],[1,0.5]];portConstraint=eastwest;fontSize=12;whiteSpace=wrap;html=1;" vertex="1" parent="Ig3IrDDyf_KYGwmNzcXG-126">
          <mxGeometry y="146" width="190" height="30" as="geometry" />
        </mxCell>
        <mxCell id="Ig3IrDDyf_KYGwmNzcXG-135" value="" style="edgeStyle=orthogonalEdgeStyle;fontSize=12;html=1;endArrow=ERoneToMany;rounded=0;entryX=1;entryY=0.5;entryDx=0;entryDy=0;exitX=0;exitY=0.197;exitDx=0;exitDy=0;exitPerimeter=0;" edge="1" parent="1" source="Ig3IrDDyf_KYGwmNzcXG-83" target="Ig3IrDDyf_KYGwmNzcXG-86">
          <mxGeometry width="100" height="100" relative="1" as="geometry">
            <mxPoint x="1130" y="1190" as="sourcePoint" />
            <mxPoint x="1230" y="1090" as="targetPoint" />
            <Array as="points">
              <mxPoint x="1310" y="972" />
              <mxPoint x="1310" y="1041" />
              <mxPoint x="1660" y="1041" />
              <mxPoint x="1660" y="1115" />
            </Array>
          </mxGeometry>
        </mxCell>
        <mxCell id="Ig3IrDDyf_KYGwmNzcXG-137" value="" style="edgeStyle=entityRelationEdgeStyle;fontSize=12;html=1;endArrow=ERoneToMany;rounded=0;exitX=1.005;exitY=0.783;exitDx=0;exitDy=0;exitPerimeter=0;entryX=0;entryY=0.5;entryDx=0;entryDy=0;" edge="1" parent="1" source="Ig3IrDDyf_KYGwmNzcXG-75" target="Ig3IrDDyf_KYGwmNzcXG-128">
          <mxGeometry width="100" height="100" relative="1" as="geometry">
            <mxPoint x="790" y="934" as="sourcePoint" />
            <mxPoint x="950" y="1251" as="targetPoint" />
          </mxGeometry>
        </mxCell>
        <mxCell id="Ig3IrDDyf_KYGwmNzcXG-138" value="" style="edgeStyle=entityRelationEdgeStyle;fontSize=12;html=1;endArrow=ERoneToMany;rounded=0;exitX=0;exitY=0.5;exitDx=0;exitDy=0;entryX=1;entryY=0.5;entryDx=0;entryDy=0;" edge="1" parent="1" source="Ig3IrDDyf_KYGwmNzcXG-80" target="Ig3IrDDyf_KYGwmNzcXG-128">
          <mxGeometry width="100" height="100" relative="1" as="geometry">
            <mxPoint x="950" y="1070" as="sourcePoint" />
            <mxPoint x="1050" y="970" as="targetPoint" />
          </mxGeometry>
        </mxCell>
        <mxCell id="Ig3IrDDyf_KYGwmNzcXG-139" value="ScheduledIncidentMergerJob" style="swimlane;fontStyle=0;childLayout=stackLayout;horizontal=1;startSize=26;horizontalStack=0;resizeParent=1;resizeParentMax=0;resizeLast=0;collapsible=1;marginBottom=0;align=center;fontSize=14;" vertex="1" parent="1">
          <mxGeometry x="918" y="1036" width="251" height="56" as="geometry" />
        </mxCell>
        <mxCell id="Ig3IrDDyf_KYGwmNzcXG-140" value="id: string" style="text;strokeColor=none;fillColor=none;spacingLeft=4;spacingRight=4;overflow=hidden;rotatable=0;points=[[0,0.5],[1,0.5]];portConstraint=eastwest;fontSize=12;whiteSpace=wrap;html=1;" vertex="1" parent="Ig3IrDDyf_KYGwmNzcXG-139">
          <mxGeometry y="26" width="251" height="30" as="geometry" />
        </mxCell>
        <mxCell id="Ig3IrDDyf_KYGwmNzcXG-145" value="" style="edgeStyle=orthogonalEdgeStyle;fontSize=12;html=1;endArrow=ERoneToMany;rounded=0;exitX=0;exitY=0.5;exitDx=0;exitDy=0;entryX=0;entryY=0.5;entryDx=0;entryDy=0;" edge="1" parent="1" source="Ig3IrDDyf_KYGwmNzcXG-25" target="Ig3IrDDyf_KYGwmNzcXG-139">
          <mxGeometry width="100" height="100" relative="1" as="geometry">
            <mxPoint x="970" y="1010" as="sourcePoint" />
            <mxPoint x="1070" y="910" as="targetPoint" />
            <Array as="points">
              <mxPoint x="830" y="919" />
              <mxPoint x="830" y="1000" />
              <mxPoint x="890" y="1000" />
              <mxPoint x="890" y="1064" />
            </Array>
          </mxGeometry>
        </mxCell>
        <mxCell id="Ig3IrDDyf_KYGwmNzcXG-147" value="" style="edgeStyle=orthogonalEdgeStyle;fontSize=12;html=1;endArrow=ERoneToMany;rounded=0;exitX=1;exitY=0.5;exitDx=0;exitDy=0;entryX=1.014;entryY=0.014;entryDx=0;entryDy=0;entryPerimeter=0;" edge="1" parent="1" source="Ig3IrDDyf_KYGwmNzcXG-24" target="Ig3IrDDyf_KYGwmNzcXG-140">
          <mxGeometry width="100" height="100" relative="1" as="geometry">
            <mxPoint x="950" y="1000" as="sourcePoint" />
            <mxPoint x="1050" y="900" as="targetPoint" />
            <Array as="points">
              <mxPoint x="1270" y="889" />
              <mxPoint x="1270" y="983" />
              <mxPoint x="1210" y="983" />
              <mxPoint x="1210" y="1062" />
            </Array>
          </mxGeometry>
        </mxCell>
        <mxCell id="Ig3IrDDyf_KYGwmNzcXG-151" value="" style="fontSize=12;html=1;endArrow=ERmandOne;startArrow=ERmandOne;rounded=0;entryX=0.5;entryY=0;entryDx=0;entryDy=0;exitX=0.526;exitY=0.933;exitDx=0;exitDy=0;exitPerimeter=0;" edge="1" parent="1" source="Ig3IrDDyf_KYGwmNzcXG-140" target="Ig3IrDDyf_KYGwmNzcXG-126">
          <mxGeometry width="100" height="100" relative="1" as="geometry">
            <mxPoint x="1030" y="1092" as="sourcePoint" />
            <mxPoint x="1112" y="1173" as="targetPoint" />
          </mxGeometry>
        </mxCell>
      </root>
    </mxGraphModel>
  </diagram>
</mxfile>
